<svg width="834" height="477" viewBox="0 0 834 477" fill="none" xmlns="http://www.w3.org/2000/svg">
<g clip-path="url(#clip0_283_2)">
<path d="M66.7303 477C56.2984 477 46.8373 474.686 38.5811 470.127C24.6794 462.415 16.6128 448.691 16.4232 432.475C16.3004 421.813 19.469 407.005 33.7166 393.024C30.2802 390.744 27.0224 388.129 23.9542 385.212C8.34547 370.247 0.301241 349.862 1.32236e-06 324.594C-0.245454 302.599 4.19505 281.332 13.2099 261.394C22.236 241.4 35.4906 223.932 52.5831 209.47C70.5348 194.293 90.2939 185.207 111.292 182.492C116.591 181.81 121.701 181.463 126.51 181.463C141.862 181.463 155.507 184.861 167.066 191.567C169.721 193.109 172.198 194.774 174.496 196.573C174.396 195.288 174.34 193.981 174.329 192.662C174.24 184.369 175.121 170.6 177.029 150.551C178.747 132.625 179.584 119.985 179.506 112.977C179.461 109.099 179.137 106.819 178.892 105.646L165.392 84.624L172.566 57.6788L185.475 53.4655C198.584 49.2075 214.751 45.81 233.55 43.3625L254.459 40.6467L257.594 50.9174C260.182 47.7769 262.704 45.3071 265.314 43.3066L271.998 37.9757L278.904 37.0704C282.084 36.6681 285.141 36.4669 288.019 36.4669C299.79 36.4669 309.842 39.7415 317.886 46.2011C328.43 54.6837 334.075 66.3066 334.243 79.8183C334.265 81.6065 334.232 83.417 334.142 85.2722C337.88 84.0205 341.751 83.1376 345.723 82.6235C348.847 82.21 352.083 81.9977 355.307 81.9977C355.731 81.9977 356.166 81.9977 356.59 82.0088L356.668 81.7965L371.541 79.8742C374.464 79.4942 377.655 79.2931 380.991 79.2931C387.83 79.2931 395.461 80.0754 404.242 81.6959C406.663 67.3795 407.332 58.9752 407.422 54.2031L403.282 28.6326L420.699 20.7424C434.143 14.6627 447.163 10.7846 459.402 9.19763L472.69 7.46536L477.901 13.4892L478.425 13.2545C491.858 7.17478 504.879 3.28556 517.129 1.69858L530.395 -0.0336914L539.186 10.1029C544.72 16.5067 547.454 24.8998 547.565 35.7963C547.643 42.5801 546.773 51.6326 544.854 63.6356C554.717 57.7906 565.405 54.0913 576.797 52.605C580.144 52.1803 583.335 51.9679 586.325 51.9679C596.467 51.9679 605.616 54.2702 613.526 58.7964C625.821 65.8373 633.307 77.7396 634.378 91.7431C647.778 86.3563 661.166 82.7688 674.276 81.0701L691.09 78.8796L699.312 93.7324C702.838 100.08 704.668 107.333 704.768 115.257C704.88 125.729 702.86 142.985 698.598 167.661C713.671 155.535 730.641 148.193 749.218 145.779C753.134 145.276 756.894 145.03 760.442 145.03C772.079 145.03 782.566 147.645 791.603 152.797C806.42 161.313 814.676 175.462 814.866 192.662C815.033 206.296 811.273 218.579 803.698 229.185C801.488 232.269 799.09 235.186 796.524 237.891L814.665 257.694L803.363 273.765C804.289 273.676 805.215 273.62 806.13 273.62C816.863 273.62 826.748 279.935 831.311 289.714C835.908 299.593 834.424 310.914 827.429 319.263C825.175 321.956 823.568 324.962 822.653 328.181C821.426 332.484 821.66 336.362 822.084 338.854C823.791 349.069 819.741 359.295 811.519 365.542C796.055 377.333 779.364 387.402 761.915 395.449C743.74 403.853 724.293 410.257 704.121 414.47C684.027 418.695 662.762 420.83 640.928 420.83C591.692 420.83 550.901 410.09 531.298 404.926L529.647 404.49C528.866 404.289 528.13 404.088 527.438 403.909C489.125 393.985 444.463 388.967 394.647 388.967C325.272 388.967 243.893 398.668 152.718 417.79C152.349 418.505 151.981 419.22 151.602 419.924C133.751 453.173 108.58 472.116 76.7605 476.251C73.2571 476.698 69.8766 476.922 66.6968 476.922L66.7303 477Z" fill="#4E804E"/>
<path d="M821.437 314.245C818.469 317.799 816.338 321.778 815.122 326.091C813.493 331.791 813.806 336.921 814.364 340.229C815.591 347.527 812.69 354.847 806.81 359.329C791.782 370.795 775.582 380.552 758.679 388.364C740.984 396.545 722.24 402.725 702.57 406.826C682.9 410.961 662.327 413.029 640.983 413.029C592.751 413.029 552.631 402.457 533.351 397.383C531.934 397.014 530.618 396.656 529.424 396.355C490.497 386.274 445.177 381.166 394.703 381.166C323.833 381.166 240.669 391.18 147.44 410.95C146.537 412.805 145.633 414.582 144.707 416.304C128.139 447.16 104.965 464.729 75.801 468.518C72.6993 468.909 69.6534 469.121 66.7526 469.121C57.6596 469.121 49.4815 467.132 42.4079 463.22C30.905 456.839 24.4786 445.875 24.3224 432.386C24.1996 421.657 28.0823 405.932 47.2389 391.929C47.384 391.828 47.529 391.717 47.6852 391.616C40.9798 388.755 34.8881 384.709 29.41 379.479C15.419 366.079 8.17812 347.594 7.92151 324.516C7.68721 303.684 11.8934 283.556 20.4285 264.669C28.986 245.736 41.5265 229.207 57.7154 215.517C74.4956 201.334 92.8712 192.852 112.351 190.326C117.261 189.689 122.036 189.365 126.554 189.365C140.489 189.365 152.818 192.405 163.172 198.406C176.225 205.972 184.247 216.958 186.724 230.481C190.774 229.353 195.293 228.268 200.291 227.263C198.093 225.854 196.029 224.178 194.121 222.278C186.501 214.667 182.395 204.408 182.261 192.595C182.172 184.515 183.054 171.014 184.928 151.322C186.68 133.083 187.516 120.164 187.438 112.91C187.371 106.853 186.668 103.78 186.256 102.461L173.961 83.3166L179.137 63.8929L187.974 61.0095C200.615 56.9079 216.313 53.611 234.621 51.2305L248.925 49.3753L253.142 63.1888C253.733 65.111 254.236 67.2233 254.648 69.5591C255.385 68.1509 256.155 66.7986 256.969 65.491C261.912 57.679 266.006 52.7616 270.212 49.5653L275.244 45.5532L279.975 44.9385C282.775 44.5808 285.498 44.402 288.064 44.402C297.993 44.402 306.372 47.0843 313 52.404C321.635 59.3554 326.265 68.8773 326.399 79.9639C326.466 85.8424 325.931 92.0227 324.793 98.5159C331.465 94.2243 338.795 91.5309 346.772 90.5028C349.639 90.1228 352.518 89.9328 355.352 89.9328C357.561 89.9328 359.77 90.0557 361.946 90.2792L362.403 89.0722L372.601 87.7535C375.211 87.407 378.056 87.2394 381.046 87.2394C388.053 87.2394 396.064 88.1446 405.503 90.011L410.657 91.028C414.306 71.3696 415.321 60.0819 415.377 53.6669L412.096 33.3937L424.012 27.9958C436.742 22.2402 449.015 18.5745 460.485 17.0881L469.578 15.9034L475.58 22.8437C475.669 22.9666 475.747 23.0784 475.848 23.1901L481.75 20.5191C494.48 14.7523 506.753 11.0866 518.222 9.60018L527.304 8.41553L533.318 15.3558C537.557 20.262 539.677 27.0011 539.767 35.953C539.889 45.4414 537.892 60.4171 533.574 82.2326C546.461 69.9726 561.355 62.6635 577.901 60.5066C580.836 60.1377 583.692 59.9366 586.414 59.9366C595.15 59.9366 602.994 61.8812 609.688 65.7257C620.521 71.9395 626.568 82.3108 626.713 94.9172C626.758 98.1024 626.468 101.165 625.944 104.16L630.139 102.26C645.323 95.3755 660.553 90.9051 675.38 88.9828L686.883 87.4853L692.506 97.6442C695.396 102.852 696.891 108.842 696.969 115.436C697.114 128.59 693.633 153.479 686.325 191.421C688.456 188.65 690.744 185.956 693.232 183.397C709.644 166.477 728.845 156.485 750.311 153.691C753.814 153.244 757.251 153.01 760.52 153.01C770.795 153.01 779.967 155.29 787.776 159.749C800.06 166.801 806.9 178.558 807.067 192.841C807.212 204.777 803.943 215.483 797.371 224.681C793.913 229.509 789.974 233.845 785.578 237.612L804.657 258.432L796.736 269.698C794.314 273.129 790.677 276.794 784.954 281.555C782.142 283.88 779.409 286.026 776.753 287.981C784.998 286.115 793.243 284.193 801.488 282.181C803.039 281.812 804.624 281.611 806.219 281.611C813.906 281.611 820.98 286.137 824.26 293.156C827.54 300.208 826.48 308.311 821.471 314.29L821.437 314.245Z" fill="#F9D348"/>
<path d="M204.475 112.687C204.564 120.6 203.705 134.022 201.887 152.931C200.068 171.841 199.209 184.995 199.298 192.371C199.387 199.747 201.664 205.671 206.126 210.13C210.6 214.589 216.09 216.4 222.594 215.55C234.454 214.008 247.318 205.123 261.197 188.873C275.066 172.623 286.591 154.105 295.773 133.284C304.955 112.475 309.463 94.7608 309.295 80.1315C309.229 74.2306 306.897 69.4249 302.289 65.7257C297.681 62.0264 290.964 60.7412 282.139 61.8923L280.633 63.0993C278.19 64.8987 275.121 68.7208 271.417 74.577C267.289 81.1596 264.701 89.631 263.663 99.9687L286.814 109.457C285.486 120.376 281.715 132.055 275.479 144.494C269.242 156.932 262.659 167.158 255.731 175.172C248.791 183.196 243.078 187.499 238.604 188.08C234.119 188.661 231.843 185.632 231.765 178.994C231.687 172.355 232.948 158.754 235.536 138.19C238.125 117.627 239.363 102.047 239.24 91.4527C239.118 80.8579 238.303 73.1018 236.797 68.1844C219.437 70.4419 204.91 73.4706 193.218 77.2704L192.381 80.3997L201.452 94.5372C203.382 98.717 204.397 104.774 204.486 112.687H204.475Z" fill="#C5352C"/>
<path d="M316.804 195.266C322.003 199.971 328.318 201.837 335.771 200.865C343.224 199.893 351.536 195.054 360.707 186.336C362.236 193.668 367.491 196.741 376.461 195.579C381.091 194.975 386.279 192.919 392.036 189.421C397.793 185.923 401.709 183.229 403.784 181.341C405.86 179.463 407.544 177.899 408.839 176.658L404.856 170.12L402.267 171.662C396.8 174.926 393.632 176.613 392.761 176.725C391.601 176.87 390.999 174.367 390.932 169.204C390.876 164.04 391.858 155.245 393.888 142.817C395.919 130.39 398.675 118.376 402.167 106.775C390.697 104.506 381.56 103.802 374.754 104.685C373.493 108.071 372.712 109.927 372.422 110.228C364.858 107.311 357.014 106.384 348.914 107.434C337.634 108.898 328.062 115.347 320.229 126.78C312.386 138.213 308.57 152.92 308.782 170.902C308.916 182.447 311.583 190.561 316.782 195.266H316.804ZM345.444 134C349.026 124.064 353.422 118.756 358.632 118.074C361.667 117.683 365.371 118.074 369.733 119.247C364.155 138.515 360.964 157.681 360.172 176.725C355.865 179.832 351.971 181.62 348.501 182.067C343.146 182.76 340.412 177.407 340.279 165.996C340.145 154.597 341.874 143.924 345.455 133.977L345.444 134Z" fill="#C5352C"/>
<path d="M429.747 188.661C434.734 188.013 440.725 185.688 447.71 181.687C454.694 177.686 460.618 173.562 465.505 169.304L461.522 162.766L446.382 169.774C445.077 169.941 444.396 167.516 444.34 162.476C444.285 157.447 447.732 139.062 454.683 107.311C461.634 75.5716 465.059 54.3374 464.936 43.5973C464.88 38.9034 464.122 35.7071 462.649 34.0195C452.809 35.2936 442.276 38.4787 431.03 43.5638L432.436 52.2475C432.592 65.5245 429.256 87.6305 422.439 118.554C415.622 149.478 412.242 167.717 412.308 173.283C412.375 178.848 414.049 182.972 417.34 185.632C420.632 188.292 424.771 189.309 429.758 188.661H429.747Z" fill="#C5352C"/>
<path d="M487.462 181.162C492.45 180.514 498.441 178.189 505.425 174.199C512.41 170.198 518.334 166.074 523.221 161.816L519.238 155.278L504.098 162.286C502.792 162.453 502.112 160.028 502.056 154.988C502 149.959 505.448 131.574 512.398 99.8235C519.349 68.0839 522.774 46.8496 522.652 36.1095C522.596 31.4156 521.837 28.2193 520.364 26.5317C510.524 27.8058 499.992 30.9909 488.745 36.076L490.151 44.7597C490.307 58.0479 486.971 80.1427 480.155 111.066C473.338 141.99 469.957 160.229 470.024 165.795C470.091 171.361 471.764 175.485 475.056 178.144C478.347 180.804 482.486 181.821 487.474 181.173L487.462 181.162Z" fill="#C5352C"/>
<path d="M559.838 171.774C569.824 170.478 578.984 167.136 587.329 161.749C590.353 159.749 593.577 157.313 597.024 154.44C600.472 151.579 602.759 149.333 603.908 147.701L598.631 141.935L595.407 144.773C593.253 146.662 590.23 148.674 586.347 150.786C582.465 152.898 578.783 154.183 575.313 154.642C565.182 155.96 559.537 150.372 558.388 137.889L563.587 136.604C572.111 134.29 581.483 130.122 591.703 124.087C596.734 121.013 600.996 117.035 604.5 112.139C607.992 107.256 609.699 101.556 609.632 95.0515C609.554 88.5471 606.753 83.7079 601.208 80.5228C595.663 77.3488 588.623 76.3094 580.088 77.4159C566.198 79.2152 553.847 85.6972 543.036 96.8396C532.224 107.993 526.914 121.941 527.103 138.716C527.237 150.395 530.238 159.145 536.096 164.957C541.953 170.78 549.886 173.048 559.86 171.752L559.838 171.774ZM562.203 103.232C565.071 94.1909 569.255 89.3182 574.755 88.603C579.385 87.9995 581.739 91.3187 581.829 98.5719C581.907 105.814 579.809 112.005 575.525 117.124C571.241 122.254 565.405 125.897 558.042 128.065C557.953 120.555 559.347 112.274 562.215 103.232H562.203Z" fill="#C5352C"/>
<path d="M179.149 349.807C179.204 354.657 179.416 357.742 179.807 359.06L181.737 358.815C200.827 356.334 213.579 353.495 219.972 350.265C219.771 348.756 219.649 346.13 219.604 342.386C219.481 332.004 223.442 308.635 231.498 272.291C234.945 268.267 238.95 265.183 243.525 263.048C244.986 262.858 247.218 264.87 250.208 269.083C253.198 273.296 254.782 275.397 254.972 275.375C259.368 274.123 263.898 271.743 268.55 268.245C273.203 264.747 276.293 262.076 277.833 260.254C279.372 258.432 280.6 256.957 281.503 255.817C281.325 239.813 276.271 232.448 266.363 233.734C259.569 234.616 252.986 238.025 246.626 243.971C240.256 249.916 236.083 254.543 234.097 257.874C234.008 249.872 232.836 243.803 230.583 239.657C208.726 242.495 192.861 245.837 182.976 249.67L182.741 253.023L185.252 255.772C190.462 261.405 193.106 266.859 193.162 272.134C193.195 275.196 190.852 287.702 186.144 309.629C181.436 331.556 179.104 344.945 179.16 349.807H179.149Z" fill="#C5352C"/>
<path d="M395.071 224.949C380.511 222.066 368.919 221.183 360.283 222.301C358.677 226.603 357.695 228.95 357.327 229.341C347.72 225.642 337.78 224.457 327.493 225.799C313.167 227.654 301.028 235.846 291.087 250.352C281.135 264.858 276.293 283.522 276.561 306.344C276.728 320.995 280.109 331.299 286.703 337.256C293.296 343.224 301.318 345.593 310.779 344.364C320.229 343.135 330.784 336.999 342.432 325.924C344.373 335.222 351.034 339.134 362.425 337.659C368.294 336.899 374.888 334.283 382.196 329.847C389.504 325.41 394.468 321.99 397.113 319.598C399.746 317.207 401.888 315.228 403.528 313.653L398.463 305.36L395.171 307.327C388.232 311.473 384.204 313.608 383.111 313.753C381.638 313.943 380.868 310.758 380.79 304.209C380.712 297.66 381.961 286.495 384.55 270.726C387.127 254.957 390.63 239.713 395.06 224.983L395.071 224.949ZM341.751 313.731C336.284 317.676 331.342 319.945 326.935 320.515C320.14 321.398 316.659 314.603 316.492 300.119C316.325 285.646 318.511 272.1 323.063 259.494C327.604 246.876 333.183 240.149 339.799 239.288C343.659 238.785 348.345 239.288 353.879 240.786C346.806 265.238 342.756 289.557 341.751 313.731Z" fill="#C5352C"/>
<path d="M450.778 320.291C450.655 309.227 453.645 289.904 459.771 262.333C462.749 249.503 464.501 241.601 465.014 238.629C472.679 233.376 479.173 230.392 484.495 229.699C487.618 229.297 489.203 231.387 489.259 235.991C489.314 240.584 487.362 251.157 483.412 267.708C479.463 284.249 477.521 295.503 477.599 301.46C477.756 315.597 484.539 321.789 497.95 320.045C503.819 319.285 510.468 316.67 517.854 312.211C525.251 307.763 530.316 304.321 533.05 301.929C535.783 299.526 537.97 297.548 539.599 295.961L534.534 287.669L531.243 289.636C524.671 293.726 520.833 295.849 519.728 295.995C518.256 296.185 517.497 293.603 517.43 288.239C517.363 282.874 519.36 272.089 523.41 255.873C527.449 239.657 529.435 228.358 529.368 221.976C529.29 215.595 527.259 210.521 523.265 206.777C519.271 203.033 513.96 201.592 507.355 202.441C496.332 203.871 482.91 211.326 467.067 224.815C466.799 217.182 465.449 212.063 463.028 209.482C441.172 212.32 425.306 215.662 415.421 219.495L415.187 222.848L417.697 225.597C422.908 231.23 425.552 236.852 425.619 242.473C425.652 245.535 423.187 258.734 418.211 282.058C413.235 305.382 410.802 321.051 410.892 329.053L416.124 328.371C432.826 326.203 444.385 323.51 450.778 320.291Z" fill="#C5352C"/>
<path d="M598.096 190.661C585.153 192.338 573.606 200.284 563.475 214.466C553.333 228.66 548.402 246.988 548.659 269.474C548.826 284.461 552.073 295.123 558.399 301.471C564.725 307.808 572.289 310.412 581.103 309.272C586.236 308.601 592.193 306.377 598.955 302.6C605.716 298.822 611.819 294.016 617.274 288.194C619.227 298.856 626.133 303.415 637.982 301.884C649.831 300.342 663.476 292.351 678.939 277.89L673.606 269.631L670.873 271.519C665.038 275.52 661.568 277.588 660.463 277.733C658.444 277.99 657.406 276.079 657.362 272C657.206 258.376 660.954 232.012 668.597 192.908C676.239 153.803 679.988 128.031 679.854 115.593C679.81 111.849 679.04 108.63 677.534 105.914C664.313 107.635 650.846 111.592 637.123 117.806L638.618 128.356C638.796 144.192 636.197 166.276 630.819 194.595C621.938 190.293 611.038 188.974 598.084 190.661H598.096ZM617.141 275.934C611.317 281.298 605.37 284.372 599.312 285.154C595.819 285.612 593.186 284.327 591.401 281.321C589.616 278.314 588.668 271.061 588.534 259.561C588.4 248.061 590.609 236.136 595.161 223.787C599.713 211.426 605.191 204.833 611.629 203.994C616.761 203.324 622.474 204.117 628.755 206.375C621.481 245.859 617.609 269.049 617.141 275.934Z" fill="#C5352C"/>
<path d="M726.803 290.34C739.478 288.697 751.103 284.45 761.691 277.621C765.529 275.073 769.624 271.989 773.997 268.345C778.371 264.713 781.272 261.863 782.722 259.796L776.017 252.476L771.922 256.074C769.189 258.477 765.362 261.025 760.419 263.707C755.488 266.39 750.813 268.021 746.406 268.591C733.553 270.256 726.39 263.171 724.929 247.335L731.523 245.714C742.334 242.775 754.227 237.477 767.203 229.833C773.596 225.933 779.007 220.881 783.447 214.679C787.877 208.476 790.052 201.245 789.952 192.986C789.863 184.727 786.293 178.58 779.264 174.546C772.223 170.511 763.298 169.204 752.464 170.601C734.836 172.892 719.161 181.106 705.437 195.255C691.714 209.403 684.975 227.117 685.221 248.396C685.388 263.216 689.193 274.313 696.635 281.701C704.076 289.099 714.129 291.96 726.803 290.317V290.34ZM729.804 203.357C733.442 191.88 738.752 185.699 745.726 184.794C751.594 184.034 754.595 188.247 754.696 197.445C754.796 206.643 752.13 214.489 746.685 220.993C741.24 227.497 733.843 232.124 724.505 234.873C724.393 225.34 726.156 214.835 729.793 203.357H729.804Z" fill="#C5352C"/>
<path d="M805.482 298.755C691.815 326.416 598.977 336.999 535.069 341.537C438.974 348.365 368.138 344.431 240.936 361.687C202.757 366.861 169.397 372.617 142.442 377.769C149.939 355.361 155.819 327.79 160.07 294.989L145.175 294.62C141.482 309.261 135.279 322.247 126.588 333.613C117.896 344.968 108.034 351.372 97.0217 352.802C89.6803 353.752 83.2985 351.003 77.8985 344.543C72.4873 338.083 69.6981 327.276 69.5307 312.122C69.2741 289.3 73.3576 269.374 81.8146 252.33C90.2605 235.287 100.079 226.045 111.292 224.592C118.454 223.664 124.256 224.704 128.708 227.699L128.752 255.326C135.96 258.656 146.637 259.394 160.773 257.561C163.339 257.225 165.359 256.879 166.831 256.521C169.353 251.939 170.58 246.228 170.502 239.422C170.368 228.012 165.08 219.283 154.614 213.215C144.16 207.157 130.805 205.179 114.549 207.291C98.2936 209.404 83.0196 216.5 68.7274 228.593C54.4241 240.685 43.5125 255.057 35.9815 271.732C28.4505 288.406 24.791 305.93 25.003 324.315C25.215 342.71 30.615 356.971 41.2141 367.107C51.8133 377.244 65.6481 381.2 82.7295 378.987C92.0902 377.769 100.971 374.237 109.361 368.37C108.502 373.768 107.275 379.378 105.691 385.212C62.6133 396.947 41.1807 412.604 41.4038 432.185C41.4819 439.505 44.5836 444.858 50.6865 448.245C56.7894 451.631 64.4319 452.726 73.6142 451.53C97.1221 448.479 115.799 434.029 129.667 408.179C131.709 404.379 133.65 400.289 135.525 395.986C338.694 351.942 459.179 360.469 533.708 379.77C562.549 387.235 658.991 415.6 751.538 372.818C771.23 363.71 786.359 353.417 796.49 345.705C797.316 345.079 797.706 344.074 797.539 343.045C796.735 338.229 796.155 330.405 798.71 321.398C800.942 313.541 804.791 307.528 808.372 303.248C810.101 301.18 808.127 298.129 805.505 298.766L805.482 298.755ZM87.9064 424.976C81.9039 430.788 76.7047 433.984 72.2865 434.554C63.651 435.672 59.322 433.85 59.2662 429.078C59.2105 423.97 63.5617 419.008 72.3311 414.203C81.1006 409.397 90.8072 405.877 101.451 403.641C98.4163 412.046 93.9088 419.154 87.9064 424.965V424.976Z" fill="#C5352C"/>
<path d="M614.251 387.66C667.682 389.392 722.218 379.445 769.903 354.713C776.776 351.282 783.336 347.27 789.963 343.302C780.904 350.544 771.119 356.915 760.899 362.435C717.755 385.458 662.606 394.935 614.251 387.66Z" fill="#FF9B99"/>
<path d="M754.718 173.719C770.293 170.914 788.58 179.597 785.701 197.781C784.954 202.832 782.946 207.425 780.212 211.46C781.239 206.699 782.22 202.039 782.209 197.501C782.823 181.486 767.962 176.423 754.729 173.708L754.718 173.719Z" fill="#FF9B99"/>
<path d="M579.017 79.6173C592.472 76.7451 608.539 84.5906 605.861 100.304C605.18 104.674 603.362 108.619 600.896 112.028C601.655 107.892 602.413 103.88 602.358 100.025C602.782 86.5352 590.129 82.2325 579.006 79.6173H579.017Z" fill="#FF9B99"/>
<path d="M491.802 212.7C503.986 202.195 523.355 201.245 524.983 221.127C525.274 225.866 524.604 230.459 523.221 234.84C522.752 230.28 522.44 225.821 521.514 221.641C518.245 205.023 504.287 208.834 491.802 212.7Z" fill="#FF9B99"/>
<path d="M650.79 119.303C658.399 115.47 666.354 112.396 674.343 109.502C674.499 109.781 675.168 111.178 675.291 111.424C676.072 113.391 676.317 115.514 676.507 117.582C677.199 127.439 675.726 137.285 673.539 146.852C672.68 150.651 671.598 154.407 670.326 158.117C670.326 155.167 670.56 152.283 670.706 149.355C670.828 147.589 671.553 136.95 671.687 134.927C672.044 127.92 672.758 120.834 671.743 113.894C671.687 113.559 671.598 113.234 671.52 112.944L671.553 113L673.963 113.972C666.332 116.107 658.634 118.062 650.79 119.303Z" fill="#FF9B99"/>
<path d="M499.3 38.2777C504.878 35.0702 510.859 32.645 516.85 30.3875C517.051 30.7898 517.731 32.1085 517.876 32.4885C518.881 35.3496 518.903 38.4565 518.903 41.4181C518.624 50.1241 516.85 58.6737 513.637 66.7651C513.135 55.9803 515.176 45.1509 514.139 34.422C514.105 34.1984 514.038 33.9749 514.016 33.8185L514.061 33.8967L516.471 34.869C510.836 36.3554 505.113 37.6742 499.3 38.2665V38.2777Z" fill="#FF9B99"/>
<path d="M442.153 44.9161C447.732 41.7086 453.712 39.2834 459.703 37.0259C459.904 37.4282 460.585 38.747 460.73 39.127C461.734 41.988 461.756 45.0949 461.756 48.0565C461.477 56.7626 459.703 65.3122 456.49 73.4035C455.988 62.6188 458.03 51.7893 456.992 41.0604C456.959 40.8369 456.892 40.6134 456.87 40.4569L456.914 40.5351L459.324 41.5074C453.69 42.9938 447.966 44.3126 442.153 44.9049V44.9161Z" fill="#FF9B99"/>
<path d="M382.675 108.295C387.584 107.892 392.549 108.127 397.458 108.485L396.901 110.731C394.122 121.784 391.846 134.1 388.946 145.153C386.982 133.15 389.012 120.756 393.52 109.524L394.948 111.905C390.798 110.955 386.658 109.848 382.675 108.295Z" fill="#FF9B99"/>
<path d="M371.217 227.866C377.253 227.665 383.3 228.034 389.303 228.581L388.711 230.783C384.918 244.921 382.229 260.042 379.116 274.38C377.298 259.237 379.853 243.758 385.331 229.576L386.759 231.957C381.526 230.839 376.294 229.587 371.206 227.866H371.217Z" fill="#FF9B99"/>
<path d="M245.41 250.71C251.658 241.333 270.714 228.469 277.654 243.546C279.272 247.793 279.205 252.073 278.424 256.13C276.829 250.754 275.936 244.529 271.071 241.791C263.931 238.751 252.093 247.312 245.41 250.71Z" fill="#FF9B99"/>
<path d="M122.092 211.248C138.794 208.543 161.331 215.371 164.823 234.225C165.872 240.193 165.002 246.161 162.926 251.492C163.183 245.77 162.982 240.16 161.42 235.063C156.232 218.478 137.432 213.93 122.103 211.248H122.092Z" fill="#FF9B99"/>
<path d="M283.478 67.1226C290.886 63.0098 300.058 66.8543 303.092 74.8004C305.993 81.9866 305.391 89.7985 302.969 96.9064C302.378 93.2407 302.043 89.7091 301.497 86.2669C299.924 75.1916 295.985 67.022 283.478 67.1337V67.1226Z" fill="#FF9B99"/>
</g>
<defs>
<clipPath id="clip0_283_2">
<rect width="834" height="477" fill="white"/>
</clipPath>
</defs>
</svg>
