<svg width="283" height="162" viewBox="0 0 283 162" fill="none" xmlns="http://www.w3.org/2000/svg">
<g clip-path="url(#clip0_271_2)">
<path d="M22.6436 162C19.1038 162 15.8933 161.214 13.0918 159.666C8.37452 157.047 5.63731 152.386 5.57295 146.878C5.5313 143.257 6.6065 138.228 11.4411 133.48C10.275 132.706 9.16955 131.817 8.12843 130.827C2.83195 125.744 0.102318 118.821 9.89535e-05 110.239C-0.0831909 102.77 1.4236 95.5467 4.48261 88.7753C7.5454 81.985 12.0431 76.0525 17.8431 71.141C23.9346 65.9865 30.6394 62.9007 37.7645 61.9784C39.5628 61.7469 41.2967 61.6292 42.9284 61.6292C48.1378 61.6292 52.768 62.7831 56.6902 65.0604C57.5913 65.5842 58.4317 66.1497 59.2116 66.7608C59.1775 66.3243 59.1586 65.8803 59.1548 65.4324C59.1245 62.616 59.4236 57.9399 60.071 51.1306C60.654 45.0424 60.938 40.7496 60.9115 38.3698C60.8963 37.0527 60.7866 36.2784 60.7033 35.8798L56.1223 28.7403L58.5567 19.5891L62.9369 18.1582C67.3854 16.7121 72.8712 15.5582 79.2504 14.727L86.3452 13.8046L87.409 17.2928C88.2874 16.2262 89.143 15.3874 90.0289 14.708L92.2966 12.8975L94.6401 12.59C95.7191 12.4534 96.7564 12.3851 97.7332 12.3851C101.727 12.3851 105.138 13.4972 107.868 15.691C111.446 18.5719 113.361 22.5193 113.418 27.1082C113.426 27.7155 113.414 28.3304 113.384 28.9605C114.652 28.5354 115.966 28.2355 117.314 28.0609C118.374 27.9205 119.472 27.8484 120.566 27.8484C120.71 27.8484 120.857 27.8483 121.001 27.8521L121.028 27.78L126.074 27.1272C127.066 26.9981 128.149 26.9298 129.281 26.9298C131.602 26.9298 134.191 27.1955 137.171 27.7459C137.992 22.8837 138.22 20.0294 138.25 18.4087L136.845 9.72436L142.755 7.04467C147.317 4.97986 151.735 3.66279 155.888 3.12381L160.397 2.5355L162.165 4.58132L162.343 4.50162C166.902 2.43681 171.32 1.11594 175.477 0.576965L179.978 -0.0113525L182.961 3.43126C184.839 5.60614 185.767 8.45663 185.805 12.1573C185.831 14.4613 185.536 17.5357 184.885 21.6122C188.231 19.6271 191.858 18.3707 195.724 17.8659C196.859 17.7217 197.942 17.6496 198.957 17.6496C202.398 17.6496 205.503 18.4315 208.187 19.9687C212.359 22.3599 214.899 26.4022 215.263 31.1581C219.81 29.3286 224.353 28.1102 228.801 27.5333L234.506 26.7894L237.297 31.8337C238.493 33.9896 239.114 36.453 239.148 39.1441C239.186 42.7005 238.501 48.5609 237.054 56.9416C242.169 52.8234 247.928 50.3297 254.231 49.5098C255.56 49.339 256.836 49.2555 258.04 49.2555C261.988 49.2555 265.547 50.1437 268.614 51.8935C273.641 54.7857 276.443 59.591 276.507 65.4324C276.564 70.063 275.288 74.2344 272.718 77.8364C271.968 78.884 271.154 79.8746 270.283 80.7932L276.439 87.519L272.604 92.9771C272.918 92.9467 273.232 92.9277 273.543 92.9277C277.185 92.9277 280.539 95.0722 282.088 98.3934C283.647 101.749 283.144 105.594 280.77 108.429C280.005 109.344 279.46 110.365 279.15 111.458C278.733 112.919 278.813 114.236 278.957 115.083C279.536 118.552 278.162 122.025 275.372 124.147C270.124 128.151 264.461 131.571 258.539 134.304C252.372 137.158 245.773 139.333 238.928 140.764C232.11 142.198 224.894 142.923 217.485 142.923C200.778 142.923 186.937 139.276 180.285 137.522L179.724 137.374C179.459 137.306 179.21 137.238 178.975 137.177C165.974 133.806 150.819 132.102 133.915 132.102C110.374 132.102 82.7599 135.397 51.8215 141.891C51.6966 142.134 51.5717 142.377 51.4429 142.616C45.3855 153.908 36.8445 160.341 26.0471 161.746C24.8583 161.898 23.7112 161.973 22.6322 161.973L22.6436 162Z" fill="#4E804E"/>
<path d="M278.737 106.725C277.73 107.932 277.007 109.283 276.594 110.748C276.041 112.684 276.147 114.426 276.337 115.549C276.753 118.028 275.769 120.514 273.774 122.036C268.674 125.93 263.177 129.244 257.441 131.897C251.437 134.675 245.077 136.774 238.402 138.167C231.727 139.572 224.746 140.274 217.504 140.274C201.137 140.274 187.523 136.683 180.981 134.96C180.5 134.835 180.054 134.713 179.649 134.611C166.44 131.187 151.061 129.453 133.934 129.453C109.886 129.453 81.6657 132.854 50.0307 139.568C49.724 140.198 49.4174 140.802 49.1031 141.386C43.4811 151.866 35.6177 157.832 25.7214 159.119C24.6689 159.252 23.6354 159.324 22.651 159.324C19.5655 159.324 16.7904 158.648 14.3902 157.32C10.4869 155.153 8.30624 151.429 8.25324 146.848C8.21159 143.204 9.52909 137.864 16.0295 133.108C16.0787 133.074 16.1279 133.036 16.1809 133.002C13.9056 132.03 11.8385 130.656 9.97961 128.88C5.23209 124.329 2.77504 118.051 2.68796 110.213C2.60846 103.138 4.03574 96.3019 6.93196 89.8873C9.83574 83.4576 14.0911 77.8439 19.5844 73.1943C25.2784 68.3777 31.5138 65.4968 38.124 64.639C39.7898 64.4227 41.4102 64.3126 42.9435 64.3126C47.6721 64.3126 51.8555 65.345 55.3688 67.3832C59.7983 69.9529 62.5204 73.6839 63.3608 78.2766C64.7351 77.8932 66.2684 77.5251 67.9645 77.1835C67.2187 76.7052 66.5183 76.1359 65.8709 75.4906C63.2851 72.9058 61.8919 69.4215 61.8465 65.4095C61.8162 62.6653 62.1153 58.0802 62.7513 51.3924C63.3457 45.1979 63.6296 40.8102 63.6031 38.3469C63.5804 36.2897 63.3419 35.2459 63.2018 34.798L59.0298 28.2961L60.7864 21.6994L63.7848 20.7201C68.0743 19.3271 73.401 18.2074 79.6137 17.399L84.4672 16.7689L85.8983 21.4603C86.099 22.1131 86.2693 22.8305 86.4094 23.6238C86.6593 23.1455 86.9205 22.6862 87.1969 22.2422C88.874 19.589 90.2635 17.919 91.6907 16.8334L93.3982 15.4708L95.0034 15.2621C95.9537 15.1406 96.8774 15.0799 97.7482 15.0799C101.118 15.0799 103.961 15.9908 106.21 17.7975C109.14 20.1584 110.711 23.3922 110.757 27.1575C110.779 29.154 110.598 31.2529 110.211 33.4582C112.475 32.0006 114.963 31.0859 117.67 30.7367C118.643 30.6077 119.619 30.5431 120.581 30.5431C121.331 30.5431 122.08 30.5849 122.818 30.6608L122.974 30.2509L126.434 29.803C127.32 29.6853 128.285 29.6284 129.3 29.6284C131.677 29.6284 134.396 29.9358 137.599 30.5697L139.348 30.9151C140.586 24.2386 140.93 20.4051 140.949 18.2264L139.836 11.3412L143.879 9.50792C148.199 7.55319 152.364 6.30823 156.256 5.80342L159.341 5.40108L161.378 7.75815C161.408 7.7999 161.435 7.83786 161.469 7.87582L163.471 6.96867C167.791 5.01014 171.956 3.76518 175.848 3.26037L178.929 2.85803L180.97 5.2151C182.409 6.88137 183.128 9.17011 183.158 12.2104C183.2 15.4329 182.522 20.519 181.057 27.928C185.43 23.7642 190.484 21.2819 196.098 20.5493C197.094 20.4241 198.063 20.3557 198.987 20.3557C201.951 20.3557 204.613 21.0162 206.884 22.3219C210.561 24.4322 212.612 27.9545 212.662 32.236C212.677 33.3177 212.578 34.3577 212.4 35.3749L213.824 34.7297C218.977 32.3916 224.144 30.8734 229.176 30.2205L233.079 29.7119L234.987 33.1621C235.968 34.9309 236.475 36.9653 236.502 39.2047C236.551 43.6721 235.37 52.1249 232.89 65.011C233.613 64.0697 234.389 63.1549 235.233 62.2857C240.802 56.5392 247.318 53.1459 254.602 52.197C255.791 52.0452 256.957 51.9655 258.066 51.9655C261.553 51.9655 264.665 52.7398 267.315 54.2543C271.483 56.6493 273.804 60.6422 273.861 65.493C273.91 69.5467 272.801 73.1829 270.571 76.3067C269.397 77.9464 268.061 79.4191 266.569 80.6982L273.043 87.7694L270.355 91.5954C269.533 92.7606 268.299 94.0056 266.357 95.6225C265.403 96.412 264.476 97.1407 263.574 97.805C266.372 97.1711 269.17 96.5183 271.968 95.8351C272.494 95.7098 273.032 95.6415 273.573 95.6415C276.182 95.6415 278.582 97.1787 279.695 99.5623C280.808 101.957 280.448 104.709 278.748 106.74L278.737 106.725Z" fill="#F9D348"/>
<path d="M69.3842 38.271C69.4145 40.9583 69.123 45.5168 68.5059 51.9389C67.8888 58.3611 67.5973 62.8285 67.6275 65.3336C67.6578 67.8387 68.4301 69.8504 69.9445 71.3648C71.4627 72.8793 73.3253 73.4941 75.5325 73.2057C79.5569 72.6819 83.9221 69.6644 88.6317 64.1456C93.3376 58.6268 97.2484 52.3375 100.364 45.2663C103.48 38.1989 105.01 32.1828 104.953 27.2144C104.93 25.2103 104.139 23.5782 102.575 22.3219C101.012 21.0655 98.7325 20.629 95.7379 21.02L95.2268 21.4299C94.3977 22.041 93.3565 23.3391 92.0996 25.328C90.6988 27.5636 89.8205 30.4407 89.4684 33.9516L97.3242 37.1741C96.8736 40.8824 95.594 44.8488 93.4777 49.0733C91.3614 53.2978 89.1277 56.7707 86.7766 59.4922C84.4218 62.2174 82.4834 63.6787 80.9653 63.8761C79.4433 64.0735 78.671 63.0449 78.6445 60.7903C78.618 58.5357 79.0458 53.9164 79.9241 46.9325C80.8025 39.9486 81.2227 34.6576 81.1811 31.0593C81.1394 27.4611 80.8631 24.827 80.352 23.1569C74.4611 23.9236 69.5318 24.9522 65.5642 26.2427L65.2803 27.3055L68.3582 32.1069C69.0132 33.5265 69.3577 35.5837 69.388 38.271H69.3842Z" fill="#C5352C"/>
<path d="M107.501 66.3167C109.265 67.9147 111.408 68.5485 113.937 68.2183C116.466 67.8881 119.286 66.2446 122.398 63.284C122.917 65.7739 124.7 66.8177 127.744 66.423C129.315 66.218 131.075 65.5196 133.029 64.3316C134.982 63.1436 136.311 62.2289 137.015 61.5874C137.72 60.9497 138.291 60.4184 138.73 59.997L137.379 57.7766L136.501 58.3004C134.645 59.4087 133.57 59.9819 133.275 60.0198C132.881 60.0692 132.677 59.2189 132.654 57.4654C132.635 55.7118 132.968 52.7247 133.657 48.504C134.346 44.2833 135.281 40.203 136.466 36.2632C132.575 35.4927 129.474 35.2535 127.165 35.5534C126.737 36.7034 126.472 37.3335 126.373 37.436C123.806 36.4453 121.145 36.1303 118.396 36.4871C114.569 36.9843 111.321 39.1744 108.663 43.0573C106.001 46.9402 104.707 51.9352 104.778 58.0423C104.824 61.9632 105.729 64.7188 107.493 66.3167H107.501ZM117.219 45.5092C118.434 42.1349 119.926 40.332 121.694 40.1005C122.724 39.9677 123.981 40.1005 125.461 40.499C123.568 47.0427 122.485 53.5521 122.216 60.0198C120.755 61.075 119.434 61.6823 118.256 61.8341C116.439 62.0694 115.512 60.2513 115.466 56.376C115.421 52.5045 116.007 48.8797 117.223 45.5016L117.219 45.5092Z" fill="#C5352C"/>
<path d="M145.825 64.0735C147.518 63.8534 149.551 63.0639 151.921 61.7051C154.291 60.3463 156.301 58.9457 157.959 57.4996L156.608 55.2791L151.47 57.659C151.027 57.7159 150.796 56.8923 150.777 55.1805C150.758 53.4724 151.928 47.2287 154.287 36.4454C156.646 25.6659 157.808 18.4542 157.766 14.8067C157.747 13.2125 157.49 12.127 156.99 11.5538C153.651 11.9865 150.077 13.0683 146.261 14.7953L146.738 17.7445C146.791 22.2536 145.659 29.7613 143.346 40.2638C141.032 50.7662 139.885 56.9606 139.908 58.8508C139.931 60.741 140.499 62.1416 141.615 63.0449C142.732 63.9483 144.137 64.2937 145.829 64.0735H145.825Z" fill="#C5352C"/>
<path d="M165.41 61.5267C167.102 61.3065 169.135 60.517 171.505 59.162C173.875 57.8032 175.885 56.4026 177.544 54.9565L176.192 52.7361L171.055 55.1159C170.612 55.1728 170.381 54.3492 170.362 52.6374C170.343 50.9293 171.513 44.6856 173.871 33.9023C176.23 23.1228 177.392 15.9111 177.351 12.2636C177.332 10.6694 177.074 9.58388 176.575 9.01074C173.235 9.44344 169.661 10.5252 165.845 12.2522L166.322 15.2014C166.375 19.7143 165.243 27.2182 162.93 37.7207C160.617 48.2231 159.47 54.4175 159.493 56.3077C159.515 58.1979 160.083 59.5985 161.2 60.5018C162.317 61.4052 163.721 61.7506 165.414 61.5305L165.41 61.5267Z" fill="#C5352C"/>
<path d="M189.969 58.3384C193.357 57.8981 196.465 56.7632 199.297 54.9337C200.323 54.2543 201.417 53.4269 202.587 52.4514C203.757 51.4797 204.533 50.7168 204.923 50.1626L203.132 48.2041L202.038 49.1682C201.308 49.8096 200.282 50.4929 198.964 51.2102C197.647 51.9276 196.397 52.3641 195.22 52.5197C191.782 52.9676 189.867 51.0698 189.477 46.8301L191.241 46.3936C194.133 45.6079 197.314 44.1922 200.781 42.1425C202.489 41.0987 203.935 39.7475 205.124 38.085C206.309 36.4264 206.888 34.4906 206.865 32.2816C206.839 30.0725 205.889 28.429 204.007 27.3473C202.125 26.2693 199.737 25.9163 196.84 26.2921C192.127 26.9032 187.936 29.1046 184.267 32.8889C180.599 36.6769 178.797 41.4138 178.861 47.111C178.906 51.0774 179.925 54.0493 181.912 56.023C183.9 58.0006 186.592 58.7711 189.976 58.3308L189.969 58.3384ZM190.771 35.0599C191.744 31.9893 193.164 30.3344 195.031 30.0915C196.602 29.8865 197.401 31.0138 197.431 33.4772C197.457 35.9367 196.746 38.0395 195.292 39.7779C193.838 41.5201 191.858 42.7574 189.359 43.4938C189.329 40.9431 189.802 38.1306 190.775 35.0599H190.771Z" fill="#C5352C"/>
<path d="M60.7903 118.802C60.8092 120.45 60.8811 121.497 61.0137 121.945L61.6686 121.862C68.1463 121.019 72.4736 120.055 74.6429 118.958C74.5748 118.445 74.5331 117.554 74.518 116.282C74.4763 112.756 75.8203 104.819 78.5537 92.476C79.7236 91.1096 81.0827 90.062 82.6349 89.337C83.1309 89.2725 83.8881 89.9557 84.9027 91.3866C85.9173 92.8176 86.4549 93.5312 86.5193 93.5236C88.0109 93.0985 89.548 92.29 91.1267 91.102C92.7054 89.914 93.7541 89.0068 94.2766 88.3881C94.799 87.7694 95.2155 87.2684 95.5222 86.8813C95.4616 81.446 93.7466 78.9447 90.3847 79.3812C88.0791 79.681 85.8454 80.8387 83.6874 82.8579C81.5257 84.8772 80.1097 86.4486 79.4359 87.5797C79.4056 84.862 79.008 82.801 78.2433 81.3928C70.8267 82.3569 65.4432 83.4918 62.0888 84.7937L62.0093 85.9324L62.8612 86.8661C64.6292 88.7791 65.5264 90.6313 65.5454 92.4228C65.5567 93.4628 64.7617 97.7101 63.164 105.157C61.5664 112.604 60.7751 117.151 60.7941 118.802H60.7903Z" fill="#C5352C"/>
<path d="M134.059 76.3978C129.118 75.4186 125.185 75.1187 122.254 75.4983C121.709 76.9596 121.376 77.7567 121.251 77.8895C117.991 76.6332 114.618 76.2308 111.128 76.6863C106.266 77.3164 102.147 80.0985 98.7741 85.0252C95.3971 89.9519 93.754 96.2906 93.8449 104.041C93.9017 109.017 95.0488 112.517 97.2863 114.54C99.5237 116.567 102.246 117.371 105.456 116.954C108.663 116.536 112.244 114.453 116.197 110.691C116.856 113.849 119.116 115.177 122.981 114.676C124.973 114.418 127.21 113.53 129.69 112.023C132.17 110.516 133.854 109.355 134.752 108.543C135.645 107.731 136.372 107.059 136.928 106.523L135.21 103.707L134.093 104.375C131.738 105.783 130.371 106.508 130 106.558C129.501 106.622 129.239 105.54 129.213 103.316C129.186 101.092 129.61 97.3002 130.489 91.9446C131.363 86.589 132.552 81.4118 134.055 76.4092L134.059 76.3978ZM115.966 106.55C114.111 107.89 112.434 108.66 110.938 108.854C108.633 109.154 107.451 106.846 107.395 101.927C107.338 97.0117 108.08 92.4115 109.625 88.13C111.165 83.8448 113.058 81.5598 115.303 81.2676C116.613 81.0968 118.203 81.2676 120.081 81.7762C117.681 90.081 116.307 98.3402 115.966 106.55Z" fill="#C5352C"/>
<path d="M152.962 108.778C152.92 105.02 153.935 98.4579 156.013 89.0941C157.024 84.7368 157.618 82.0533 157.792 81.0437C160.393 79.2597 162.597 78.2463 164.403 78.011C165.463 77.8743 166 78.5841 166.019 80.1479C166.038 81.7079 165.376 85.2985 164.035 90.9198C162.695 96.5373 162.036 100.359 162.063 102.383C162.116 107.184 164.418 109.287 168.968 108.695C170.96 108.437 173.216 107.548 175.723 106.034C178.233 104.523 179.951 103.354 180.879 102.542C181.806 101.726 182.549 101.054 183.101 100.515L181.382 97.6988L180.266 98.3668C178.036 99.756 176.733 100.477 176.359 100.526C175.859 100.591 175.601 99.7142 175.579 97.8923C175.556 96.0705 176.234 92.4077 177.608 86.9003C178.978 81.3929 179.652 77.5555 179.63 75.3882C179.603 73.2209 178.914 71.4977 177.559 70.2262C176.203 68.9547 174.401 68.4651 172.16 68.7535C168.42 69.2394 163.865 71.771 158.489 76.3523C158.398 73.7599 157.94 72.0215 157.119 71.1448C149.702 72.1088 144.318 73.2437 140.964 74.5456L140.885 75.6843L141.736 76.618C143.504 78.531 144.402 80.4402 144.424 82.3494C144.436 83.3894 143.599 87.872 141.911 95.7934C140.222 103.715 139.397 109.036 139.427 111.754L141.203 111.522C146.87 110.786 150.792 109.871 152.962 108.778Z" fill="#C5352C"/>
<path d="M202.951 64.753C198.559 65.3223 194.641 68.021 191.203 72.8376C187.762 77.658 186.089 83.8828 186.176 91.5196C186.232 96.6095 187.334 100.23 189.481 102.386C191.627 104.538 194.194 105.423 197.185 105.036C198.927 104.808 200.948 104.053 203.242 102.77C205.537 101.487 207.608 99.8547 209.459 97.8772C210.121 101.498 212.465 103.047 216.486 102.527C220.506 102.003 225.136 99.2891 230.384 94.3776L228.574 91.5727L227.646 92.2141C225.666 93.573 224.489 94.2752 224.114 94.3245C223.429 94.4118 223.077 93.7628 223.062 92.3774C223.009 87.7505 224.281 78.7967 226.874 65.5159C229.467 52.2351 230.739 43.4824 230.694 39.2579C230.679 37.9864 230.418 36.8933 229.907 35.9709C225.42 36.5555 220.851 37.8991 216.194 40.0095L216.701 43.5925C216.762 48.9709 215.88 56.471 214.055 66.089C211.041 64.6277 207.343 64.1798 202.947 64.753H202.951ZM209.413 93.7134C207.437 95.5353 205.419 96.5791 203.364 96.8448C202.179 97.0004 201.285 96.5639 200.679 95.5429C200.074 94.5219 199.752 92.0585 199.706 88.1529C199.661 84.2472 200.411 80.1973 201.955 76.0031C203.5 71.8052 205.359 69.5658 207.543 69.2811C209.285 69.0534 211.223 69.3229 213.355 70.0896C210.886 83.4995 209.572 91.3753 209.413 93.7134Z" fill="#C5352C"/>
<path d="M246.625 98.6058C250.926 98.0479 254.871 96.6056 258.463 94.2864C259.766 93.421 261.155 92.3735 262.639 91.1361C264.123 89.9025 265.108 88.9346 265.6 88.2325L263.325 85.7463L261.935 86.9685C261.008 87.7846 259.709 88.65 258.032 89.5609C256.359 90.4719 254.772 91.026 253.277 91.2196C248.915 91.7851 246.485 89.3787 245.989 84.0004L248.226 83.45C251.895 82.4518 255.931 80.6526 260.334 78.0565C262.503 76.7318 264.339 75.0162 265.846 72.9096C267.349 70.8031 268.087 68.3473 268.053 65.5424C268.023 62.7374 266.811 60.6498 264.426 59.2796C262.037 57.9094 259.009 57.4653 255.333 57.9398C249.351 58.7179 244.032 61.5076 239.375 66.3129C234.718 71.1181 232.432 77.1341 232.515 84.3609C232.572 89.3939 233.863 93.1629 236.388 95.6718C238.913 98.1845 242.324 99.1562 246.625 98.5982V98.6058ZM247.643 69.0647C248.878 65.1666 250.68 63.0676 253.046 62.7602C255.037 62.5021 256.056 63.933 256.09 67.0568C256.124 70.1806 255.219 72.8451 253.371 75.0541C251.524 77.2632 249.014 78.8346 245.845 79.7683C245.807 76.5306 246.405 72.9628 247.64 69.0647H247.643Z" fill="#C5352C"/>
<path d="M273.323 101.464C234.752 110.858 203.25 114.453 181.564 115.994C148.956 118.313 124.92 116.977 81.7565 122.837C68.8012 124.594 57.4813 126.549 48.3346 128.299C50.8787 120.689 52.8739 111.325 54.3163 100.185L49.2621 100.06C48.009 105.032 45.904 109.442 42.9548 113.302C40.0056 117.159 36.6588 119.334 32.9222 119.82C30.431 120.142 28.2655 119.208 26.4331 117.015C24.597 114.821 23.6505 111.15 23.5937 106.004C23.5066 98.2529 24.8923 91.4854 27.762 85.6971C30.6279 79.9088 33.9595 76.7698 37.7643 76.2764C40.1949 75.9614 42.1635 76.3144 43.6741 77.3316L43.6893 86.7143C46.135 87.8454 49.7581 88.0959 54.5548 87.4734C55.4256 87.3596 56.1108 87.2419 56.6105 87.1204C57.4662 85.5642 57.8826 83.6247 57.8561 81.3132C57.8107 77.4379 56.0162 74.4735 52.465 72.4125C48.9176 70.3553 44.3859 69.6835 38.8698 70.4008C33.3537 71.1182 28.1708 73.5284 23.3211 77.6352C18.4676 81.7421 14.765 86.6232 12.2095 92.2863C9.654 97.9493 8.41222 103.901 8.48416 110.145C8.55609 116.392 10.3885 121.235 13.9851 124.678C17.5817 128.121 22.2762 129.464 28.0724 128.713C31.2488 128.299 34.2624 127.099 37.1094 125.107C36.8178 126.94 36.4014 128.845 35.8638 130.827C21.2464 134.812 13.9737 140.13 14.0494 146.78C14.0759 149.266 15.1284 151.084 17.1993 152.234C19.2702 153.384 21.8635 153.756 24.9793 153.35C32.9562 152.314 39.2938 147.406 43.9997 138.627C44.6925 137.336 45.3513 135.947 45.9873 134.486C114.929 119.527 155.813 122.423 181.102 128.978C190.889 131.514 223.614 141.147 255.018 126.617C261.7 123.524 266.834 120.028 270.272 117.409C270.552 117.197 270.684 116.855 270.628 116.506C270.355 114.87 270.158 112.213 271.025 109.154C271.782 106.486 273.088 104.444 274.304 102.99C274.891 102.288 274.22 101.251 273.331 101.468L273.323 101.464ZM29.8291 144.332C27.7923 146.305 26.028 147.391 24.5288 147.584C21.5985 147.964 20.1296 147.345 20.1107 145.725C20.0917 143.99 21.5682 142.305 24.544 140.673C27.5197 139.04 30.8134 137.845 34.4252 137.086C33.3954 139.94 31.8659 142.354 29.8291 144.328V144.332Z" fill="#C5352C"/>
<path d="M208.433 131.658C226.564 132.246 245.069 128.868 261.25 120.469C263.582 119.303 265.808 117.941 268.057 116.593C264.983 119.053 261.663 121.216 258.195 123.091C243.555 130.91 224.841 134.129 208.433 131.658Z" fill="#FF9B99"/>
<path d="M256.097 58.9988C261.383 58.0461 267.588 60.9953 266.611 67.1708C266.357 68.8864 265.676 70.4464 264.748 71.8166C265.096 70.1996 265.43 68.6169 265.426 67.0759C265.634 61.6368 260.591 59.9174 256.101 58.995L256.097 58.9988Z" fill="#FF9B99"/>
<path d="M196.477 27.0399C201.043 26.0644 206.494 28.7289 205.586 34.0655C205.355 35.5496 204.738 36.8895 203.901 38.0471C204.159 36.6428 204.416 35.2801 204.397 33.9706C204.541 29.3894 200.248 27.9281 196.473 27.0399H196.477Z" fill="#FF9B99"/>
<path d="M166.883 72.2379C171.017 68.67 177.589 68.3474 178.142 75.0998C178.24 76.7091 178.013 78.2691 177.544 79.757C177.385 78.2084 177.279 76.6939 176.964 75.2744C175.855 69.6303 171.119 70.9246 166.883 72.2379Z" fill="#FF9B99"/>
<path d="M220.832 40.5181C223.414 39.2162 226.113 38.1724 228.824 37.1893C228.877 37.2842 229.104 37.7587 229.146 37.8422C229.411 38.5102 229.494 39.2314 229.558 39.9335C229.793 43.2813 229.293 46.6252 228.551 49.8742C228.26 51.1647 227.892 52.44 227.461 53.7002C227.461 52.6981 227.54 51.7189 227.59 50.7244C227.631 50.1247 227.877 46.5113 227.923 45.8243C228.044 43.4445 228.286 41.0381 227.942 38.681C227.923 38.5671 227.893 38.4571 227.866 38.3584L227.877 38.3774L228.695 38.7076C226.106 39.4325 223.493 40.0968 220.832 40.5181Z" fill="#FF9B99"/>
<path d="M169.427 12.9999C171.32 11.9105 173.349 11.0869 175.382 10.3202C175.45 10.4568 175.681 10.9047 175.73 11.0338C176.071 12.0054 176.079 13.0606 176.079 14.0664C175.984 17.0232 175.382 19.9269 174.292 22.6749C174.121 19.0121 174.814 15.3342 174.462 11.6904C174.451 11.6145 174.428 11.5386 174.42 11.4854L174.436 11.512L175.253 11.8422C173.341 12.347 171.399 12.7949 169.427 12.9961V12.9999Z" fill="#FF9B99"/>
<path d="M150.035 15.2545C151.928 14.1652 153.958 13.3415 155.991 12.5748C156.059 12.7115 156.29 13.1594 156.339 13.2884C156.68 14.2601 156.687 15.3153 156.687 16.3211C156.593 19.2779 155.991 22.1815 154.9 24.9295C154.73 21.2668 155.423 17.5888 155.071 13.945C155.059 13.8691 155.037 13.7932 155.029 13.7401L155.044 13.7666L155.862 14.0969C153.95 14.6017 152.008 15.0496 150.035 15.2507V15.2545Z" fill="#FF9B99"/>
<path d="M129.853 36.7794C131.518 36.6428 133.203 36.7225 134.869 36.844L134.68 37.6069C133.737 41.3607 132.965 45.5435 131.98 49.2973C131.314 45.2208 132.003 41.0115 133.532 37.1969L134.017 38.0054C132.609 37.6828 131.204 37.307 129.853 36.7794Z" fill="#FF9B99"/>
<path d="M125.964 77.3885C128.013 77.3202 130.065 77.4455 132.101 77.6314L131.901 78.3792C130.614 83.1806 129.701 88.3161 128.645 93.1858C128.028 88.0428 128.895 82.7859 130.754 77.9692L131.238 78.7777C129.463 78.3982 127.687 77.973 125.961 77.3885H125.964Z" fill="#FF9B99"/>
<path d="M83.2747 85.1467C85.3948 81.9622 91.8611 77.5934 94.2159 82.7137C94.7649 84.156 94.7422 85.6097 94.4771 86.9875C93.9358 85.1619 93.6329 83.0477 91.9822 82.1178C89.5593 81.0854 85.5424 83.9928 83.2747 85.1467Z" fill="#FF9B99"/>
<path d="M41.4292 71.7445C47.0967 70.8259 54.7442 73.1451 55.9292 79.5482C56.2851 81.5751 55.9898 83.6019 55.2856 85.4124C55.3727 83.4691 55.3045 81.5637 54.7745 79.8329C53.0141 74.2002 46.6348 72.6554 41.433 71.7445H41.4292Z" fill="#FF9B99"/>
<path d="M96.1921 22.7963C98.706 21.3996 101.818 22.7052 102.848 25.4039C103.832 27.8445 103.628 30.4976 102.806 32.9116C102.605 31.6667 102.492 30.4673 102.306 29.2982C101.773 25.5368 100.436 22.7622 96.1921 22.8001V22.7963Z" fill="#FF9B99"/>
</g>
<defs>
<clipPath id="clip0_271_2">
<rect width="283" height="162" fill="white"/>
</clipPath>
</defs>
</svg>
